<?xml version="1.0" encoding="iso-8859-1"?>
<!-- Generator: Adobe Illustrator 19.0.0, SVG Export Plug-In . SVG Version: 6.00 Build 0)  -->
<svg version="1.1" id="Capa_1" xmlns="http://www.w3.org/2000/svg" xmlns:xlink="http://www.w3.org/1999/xlink" x="0px" y="0px"
	 viewBox="0 0 512 512" style="enable-background:new 0 0 512 512;" xml:space="preserve">
<path style="fill:#FF822E;" d="M382.162,366.591c-37.81-1.735-67.016-34.58-65.06-73.228l13.755-271.788
	C331.451,9.844,322.309,0,310.821,0H209.484c11.488,0,20.63,9.844,20.036,21.575l-13.755,271.788
	c-1.956,38.648,27.25,71.493,65.06,73.228c57.227,2.626,129.323-5.03,129.323,81.409v43.166c0,11.506-9.122,20.834-20.375,20.834
	H491.11c11.253,0,20.375-9.328,20.375-20.834V448C511.485,361.56,439.39,369.217,382.162,366.591z"/>
<path style="fill:#F96E21;" d="M437.48,491.166V448c0-86.44-72.096-78.784-129.323-81.41c-37.81-1.734-67.016-34.58-65.06-73.228
	l13.755-271.787C257.446,9.844,248.304,0,236.816,0h-27.332c11.488,0,20.63,9.844,20.036,21.575l-13.755,271.787
	c-1.956,38.648,27.25,71.493,65.06,73.228c57.227,2.626,129.323-5.03,129.323,81.41v43.166c0,11.507-9.122,20.834-20.375,20.834
	h27.331C428.358,512,437.48,502.672,437.48,491.166z"/>
<path style="fill:#F6B138;" d="M310.821,0H209.484c11.488,0,20.63,9.844,20.036,21.575l-13.755,271.788
	c-0.561,11.086,1.453,21.69,5.488,31.224c33.738-23.634,21.904-59.547,34.323-87.158c10.582-23.528,41.381-34.521,65.747-27.456l0,0
	c9.289-195.653,11.062-189.18,8.27-196.717C326.733,5.537,319.437,0,310.821,0z"/>
<path style="fill:#F2902F;" d="M256.852,21.575C257.446,9.844,248.304,0,236.816,0h-27.33c11.487,0.001,20.629,9.844,20.035,21.575
	l0,0l0,0C215,308.501,214.873,297.32,216.52,307.939c0.91,5.873,2.563,11.52,4.733,16.646v0.001
	c9.793-6.861,17.49-16.706,21.771-28.384C243.065,292.567,242.223,311.326,256.852,21.575z"/>
<path style="fill:#A9A9AA;" d="M511.485,462.381H410.149v28.784c0,11.506-9.122,20.834-20.375,20.834H491.11
	c11.253,0,20.375-9.328,20.375-20.834V462.381z"/>
<path style="fill:#929293;" d="M410.149,462.381v28.785l0,0c0,11.536-9.153,20.834-20.374,20.834h27.331
	c11.252-0.001,20.374-9.328,20.374-20.834v-28.785H410.149z"/>
<path style="fill:#F6B138;" d="M18.641,0h191.874c11.488,0,20.63,9.844,20.036,21.575l-13.755,271.787
	c-1.956,38.648,27.25,71.493,65.06,73.228c57.227,2.626,129.323-5.03,129.323,81.409v43.166c0,11.506-9.122,20.834-20.375,20.834
	h-171.24c-9.338,0-18.497-2.617-26.483-7.565l-30.853-19.12c-4.958-3.072-11.294,0.577-11.294,6.505v9.373
	c0,5.968-4.732,10.807-10.569,10.807H41.866c-7.022,0-12.828-5.593-13.248-12.76L0.548,19.64C-0.075,8.988,8.205,0,18.641,0z"/>
<path style="fill:#F2902F;" d="M55.405,499.24l-28.07-479.6C26.711,8.988,34.991,0,45.427,0H18.641C8.205,0-0.075,8.988,0.548,19.64
	l28.07,479.6c0.42,7.167,6.226,12.76,13.248,12.76h26.786C61.631,512,55.824,506.407,55.405,499.24z"/>
<path style="fill:#F9CC3E;" d="M155.269,237.428c10.582-23.528,41.381-34.521,65.747-27.456l0,0l9.535-188.397
	C231.144,9.844,222.002,0,210.515,0H18.641C8.205,0-0.075,8.988,0.548,19.64L19.01,335.069h68.849
	c28.938,0,53.543-21.603,57.918-50.853C150.528,252.452,150.562,247.894,155.269,237.428z"/>
<path style="fill:#F6B138;" d="M19.01,335.069h26.786L27.335,19.64C26.711,8.988,34.991,0,45.427,0H18.641
	C9.599,0,1.957,6.805,0.701,15.923C0.354,18.436,15.195,269.418,19.01,335.069z"/>
<path style="fill:#A9A9AA;" d="M26.461,462.381l2.157,36.859c0.42,7.167,6.226,12.76,13.248,12.76h98.499
	c5.837,0,10.568-4.838,10.568-10.807v-9.374c0-5.927,6.337-9.577,11.294-6.505l30.853,19.12c7.986,4.949,17.145,7.565,26.483,7.565
	h171.24c11.253,0,20.375-9.328,20.375-20.834V462.38H26.461V462.381z"/>
<path style="fill:#929293;" d="M28.618,499.24c0.42,7.167,6.226,12.76,13.248,12.76h26.786c-7.022,0-12.828-5.593-13.248-12.76
	l-2.157-36.859H26.461C27.247,475.818,27.904,487.031,28.618,499.24z"/>
<g>
</g>
<g>
</g>
<g>
</g>
<g>
</g>
<g>
</g>
<g>
</g>
<g>
</g>
<g>
</g>
<g>
</g>
<g>
</g>
<g>
</g>
<g>
</g>
<g>
</g>
<g>
</g>
<g>
</g>
</svg>
