<?xml version="1.0"?>
<svg xmlns="http://www.w3.org/2000/svg" xmlns:xlink="http://www.w3.org/1999/xlink" xmlns:svgjs="http://svgjs.com/svgjs" version="1.1" width="512" height="512" x="0" y="0" viewBox="0 0 512 512" style="enable-background:new 0 0 512 512" xml:space="preserve" class=""><g><g xmlns="http://www.w3.org/2000/svg"><g><path d="m305.548 311.65s79.336-14.491 96.375-91.616-51.118-99.545-51.118-99.545l-67.031 169.209z" fill="#fffbbc" data-original="#ff8857" style="" class=""/></g><g><path d="m404.287 138.24c-5.342-77.252-69.711-138.259-148.324-138.24l-6.125 6.965c-82.253.619-142.483 99.238-142.483 181.493 0 81.609 35.533 94.795 34.655 123.759-.38 12.529-6.063 22.004-12.492 28.765-4.157 4.372-.582 11.534 5.421 10.928l18.143-1.833c15.733-1.59 28.065-14.298 29.023-30.082 1.049-17.285-4.289-41.918-19.742-71.129z" fill="#fffbbc" data-original="#ff8857" style="" class=""/></g><path d="m214.71 8.258-3.975-1.186c-60.187 19.915-103.38 78.455-103.38 145.226v36.161c0 1.967.114 3.712.154 5.601 3.254-93.814 115.459-152.77 115.459-152.77z" fill="#f3efb0" data-original="#ff744d" style="" class=""/><g><path d="m318.761 356.748c-8.318-6.238-13.213-16.029-13.213-26.426v-18.672h-91.04v18.673c0 10.397-4.895 20.188-13.213 26.426l-19.82 14.864 24.975 57.806h99.097l33.032-57.806z" fill="#7d4ed1" data-original="#f9d8af" style="" class=""/></g><g><path d="m203.134 369.98c12.485-9.36 19.834-24.053 19.834-39.657 0-6.43 5.786-11.233 12.118-10.114 6.797 1.201 13.776 1.856 20.914 1.856 17.619 0 34.359-3.755 49.548-10.415v-39.134h-99.097v57.807c0 10.397-4.895 20.187-13.213 26.425l-19.82 14.864 9.911 13.214z" fill="#593bc7" data-original="#f2c59a" style="" class=""/></g><path d="m413.052 392.901-82.729-29.546-49.548 8.258-16.516 38.538-1.396 9.158c-2.586 6.033-11.139 6.033-13.725 0l-1.396-9.158-16.516-38.538-40.996-8.258-82.73 29.546c-19.72 7.043-32.884 25.722-32.884 46.662v47.663l7.966 23.365c2.582.912 5.361 1.409 8.256 1.409h156.903l8.259-5.162 8.257 5.162h156.903c13.682 0 24.774-11.092 24.774-24.774v-47.663c.002-20.94-13.162-39.62-32.882-46.662z" fill="#000000" data-original="#ceeaff" style="" class=""/><g><path d="m249.675 74.458c-20.035 17.621-89.05 47.31-89.05 115.477v8.258c0 59.29 36.084 106.165 95.374 106.165 5.63 0 11.159.756 16.556-.079 51.43-7.961 90.799-52.426 90.799-106.086v-82.581z" fill="#a27ae9" data-original="#fbe7c3" style="" class=""/></g><g><path d="m181.677 198.193v-8.258c0-59.128 56.356-89.388 84.388-107.879l-22.423-7.734c-20.035 17.621-94.997 47.446-94.997 115.613v8.258c0 59.29 48.065 107.355 107.355 107.355 5.632 0 11.158-.433 16.556-1.269-51.428-7.962-90.879-52.427-90.879-106.086z" fill="#7d4ed1" data-original="#f9d8af" style="" class=""/></g><g><path d="m206.452 198.193c-4.565 0-8.258-3.698-8.258-8.258v-8.258c0-4.56 3.694-8.258 8.258-8.258 4.565 0 8.258 3.698 8.258 8.258v8.258c0 4.561-3.694 8.258-8.258 8.258z" fill="#6b4f5a" data-original="#6b4f5a" style="" class=""/></g><g><path d="m305.548 198.193c-4.565 0-8.258-3.698-8.258-8.258v-8.258c0-4.56 3.694-8.258 8.258-8.258s8.258 3.698 8.258 8.258v8.258c0 4.561-3.693 8.258-8.258 8.258z" fill="#6b4f5a" data-original="#6b4f5a" style="" class=""/></g><g><path d="m256 256c-12.387 0-23.823-3.976-30.573-10.637-3.25-3.202-3.282-8.431-.081-11.677 3.202-3.25 8.444-3.282 11.677-.081 2.75 2.714 9.371 5.879 18.976 5.879s16.226-3.165 18.976-5.879c3.234-3.202 8.476-3.169 11.677.081 3.202 3.246 3.169 8.476-.081 11.677-6.748 6.661-18.184 10.637-30.571 10.637z" fill="#593bc7" data-original="#f2c59a" style="" class=""/></g><g><path d="m214.71 164.443h-16.516c-4.565 0-8.258-3.698-8.258-8.258s3.694-8.258 8.258-8.258h16.516c4.565 0 8.258 3.698 8.258 8.258 0 4.561-3.694 8.258-8.258 8.258z" fill="#f3efb0" data-original="#ff744d" style="" class=""/></g><g><path d="m313.806 164.443h-16.516c-4.565 0-8.258-3.698-8.258-8.258s3.694-8.258 8.258-8.258h16.516c4.565 0 8.258 3.698 8.258 8.258.001 4.561-3.693 8.258-8.258 8.258z" fill="#f3efb0" data-original="#ff744d" style="" class=""/></g><g><path d="m339.897 348.155c-5.567-5.567-14.29-6.431-20.84-2.064l-38.282 25.522 35.303 35.303c7.37 7.37 19.639 6.155 25.421-2.517l18.102-27.152c2.184-3.275 1.752-7.637-1.032-10.42z" fill="#000000" data-original="#b0def5" style="" class=""/></g><g><path d="m192.944 346.091c-6.551-4.367-15.273-3.504-20.84 2.064l-18.671 18.671c-1.989 1.989-2.719 4.778-2.211 7.406l-52.273 18.669c-19.72 7.043-32.884 25.722-32.884 46.662v47.663c0 10.771 6.916 19.959 16.516 23.372v-71.033c0-13.923 8.815-26.427 21.927-31.113l55.486-19.816 10.508 15.763c5.781 8.672 18.051 9.887 25.421 2.517l35.303-35.302z" fill="#000000" data-original="#b0def5" style="" class=""/></g><g><path d="m262.862 413.407c-2.586 6.033-11.139 6.033-13.725 0l-1.396-3.257v101.85h16.516v-101.849z" fill="#000000" data-original="#b0def5" style="" class=""/></g><g><circle cx="289.032" cy="478.968" fill="#000000" r="8.258" data-original="#ffffff" style="" class=""/></g><g><circle cx="289.032" cy="437.677" fill="#000000" r="8.258" data-original="#ffffff" style="" class=""/></g><g><path d="m381.939 338.867c2.847 4.367 9.069 4.786 12.564.919 2.503-2.769 2.75-6.904.594-9.952l-.672-.951c-14.462-20.448-6.281-48.583 5.145-65.692 12.725-19.054 29.85-38.568 29.85-64.998 0-59.964-60.258-89.907-108.677-113.964-19.573-9.726-44.177-24.009-56.488-35.298-18.622-17.078-12.434-39.147-8.291-48.929-15.778.004-30.961 2.512-45.228 7.07-1.287 10.739-.82 22.877 3.975 34.218 26.622 62.968 181.677 82.581 181.677 156.903 0 49.548-24.774 66.065-24.774 107.355-.001 14.475 5.637 26.13 10.325 33.319z" fill="#fdfcd9" data-original="#ffa65a" style="" class=""/></g></g></g></svg>
