<svg height="512" viewBox="0 0 64 64" width="512" xmlns="http://www.w3.org/2000/svg"><g id="Flat"><g id="Color"><g><path d="m25 60h-2a3 3 0 0 1 -3-3v-26a1 1 0 0 0 -1-1h-7a1 1 0 0 0 -1 1v4a1 1 0 0 1 -2 0v-4a3 3 0 0 1 3-3h7a3 3 0 0 1 3 3v26a1 1 0 0 0 1 1h2a1 1 0 0 1 0 2z" fill="#f9e109"/><rect fill="#c4f236" height="22" rx="2" width="14" x="3" y="39"/><path d="m41 45h-8l4-6h8z" fill="#aae1f9"/><path d="m49 45h-8l4-6h8z" fill="#aae1f9"/><path d="m57 45h-8l4-6h8z" fill="#aae1f9"/><path d="m37 51h-8l4-6h8z" fill="#aae1f9"/><path d="m45 51h-8l4-6h8z" fill="#aae1f9"/><path d="m53 51h-8l4-6h8z" fill="#aae1f9"/><path d="m33 57h-8l4-6h8z" fill="#aae1f9"/><path d="m41 57h-8l4-6h8z" fill="#aae1f9"/><path d="m49 57h-8l4-6h8z" fill="#aae1f9"/><path d="m25 57h24v4h-24z" fill="#d0d8da"/><path d="m61 61h-12v-4l12-18z" fill="#656b76"/><circle cx="32" cy="14" fill="#f9e109" r="5"/><path d="m56 12c-.061 0-.119.013-.178.018a2.982 2.982 0 0 0 -5.644 0c-.059-.005-.117-.018-.178-.018a2 2 0 1 0 1.324 3.488 3 3 0 0 0 3.352 0 2 2 0 1 0 1.324-3.488z" fill="#aae1f9"/><path d="m11 14a3.994 3.994 0 0 1 7.632-1.656 3 3 0 1 1 -.917 4.578 3.945 3.945 0 0 1 -5.111.263 2 2 0 1 1 -1.604-3.185z" fill="#aae1f9"/><path d="m7 35h6v4h-6z" fill="#d0d8da"/><path d="m41 45h-8l12-6z" fill="#57b7eb"/><path d="m49 45h-8l12-6z" fill="#57b7eb"/><path d="m57 45h-8l12-6z" fill="#57b7eb"/><path d="m37 51h-8l12-6z" fill="#57b7eb"/><path d="m45 51h-8l12-6z" fill="#57b7eb"/><path d="m53 51h-8l12-6z" fill="#57b7eb"/><path d="m33 57h-8l12-6z" fill="#57b7eb"/><path d="m41 57h-8l12-6z" fill="#57b7eb"/><path d="m49 57h-8l12-6z" fill="#57b7eb"/><path d="m46 57a2 2 0 0 1 -2 2h-19v2h24v-4z" fill="#93999a"/><path d="m6 49v-10h-1a2 2 0 0 0 -2 2v18a2 2 0 0 0 2 2h10a2 2 0 0 0 2-2v-2h-3a8 8 0 0 1 -8-8z" fill="#a1d51c"/><path d="m11 37a2 2 0 0 1 -2-2h-2v4h6v-2z" fill="#93999a"/><path d="m57 14a1.982 1.982 0 0 1 -1.324-.512 3 3 0 0 1 -3.352 0 1.983 1.983 0 0 1 -3.3-1.225 1.993 1.993 0 1 0 2.3 3.225 3 3 0 0 0 3.352 0 1.991 1.991 0 0 0 3.324-1.488 1.905 1.905 0 0 0 -.027-.263 1.972 1.972 0 0 1 -.973.263z" fill="#57b7eb"/><path d="m21 16a2.978 2.978 0 0 1 -2.285-1.078 3.945 3.945 0 0 1 -5.111.263 1.988 1.988 0 0 1 -3.577-.922 1.994 1.994 0 1 0 2.573 2.922 3.945 3.945 0 0 0 5.111-.263 2.977 2.977 0 0 0 5.261-1.68 2.98 2.98 0 0 1 -1.972.758z" fill="#57b7eb"/><path d="m34 17a5 5 0 0 1 -5-5 4.95 4.95 0 0 1 .625-2.375 4.984 4.984 0 1 0 6.75 6.75 4.95 4.95 0 0 1 -2.375.625z" fill="#fcbc04"/><g fill="#f9e109"><path d="m32 7a1 1 0 0 1 -1-1v-2a1 1 0 0 1 2 0v2a1 1 0 0 1 -1 1z"/><path d="m32 25a1 1 0 0 1 -1-1v-2a1 1 0 0 1 2 0v2a1 1 0 0 1 -1 1z"/><path d="m52.5 35.5a1 1 0 0 1 -.707-.293l-8.5-8.5a1 1 0 0 1 1.414-1.414l8.5 8.5a1 1 0 0 1 -.707 1.707z"/><path d="m32 40a1 1 0 0 1 -1-1v-8a1 1 0 0 1 2 0v8a1 1 0 0 1 -1 1z"/><path d="m41 36a1 1 0 0 1 -.914-.594l-4-9a1 1 0 1 1 1.828-.812l4 9a1 1 0 0 1 -.914 1.406z"/><path d="m10 55a1.015 1.015 0 0 1 -.372-.071 1 1 0 0 1 -.557-1.3l1.029-2.558-1.653.829a1 1 0 0 1 -1.376-1.267l2-5a1 1 0 1 1 1.858.744l-1.029 2.552 1.648-.824a1 1 0 0 1 1.376 1.267l-2 5a1 1 0 0 1 -.924.628z"/><path d="m42 15h-2a1 1 0 0 1 0-2h2a1 1 0 0 1 0 2z"/><path d="m26.343 9.343a1 1 0 0 1 -.707-.293l-1.414-1.414a1 1 0 0 1 1.414-1.414l1.414 1.414a1 1 0 0 1 -.707 1.707z"/><path d="m39.071 22.071a1 1 0 0 1 -.707-.293l-1.414-1.414a1 1 0 1 1 1.414-1.414l1.414 1.414a1 1 0 0 1 -.707 1.707z"/><path d="m37.657 9.343a1 1 0 0 1 -.707-1.707l1.414-1.414a1 1 0 1 1 1.414 1.414l-1.414 1.414a1 1 0 0 1 -.707.293z"/><path d="m24.929 22.071a1 1 0 0 1 -.707-1.707l1.414-1.414a1 1 0 0 1 1.414 1.414l-1.414 1.414a1 1 0 0 1 -.707.293z"/></g></g></g></g></svg>